<?xml version="1.0" encoding="UTF-8" standalone="no"?>
<!-- Created with Inkscape (http://www.inkscape.org/) -->

<svg
   version="1.1"
   id="svg358"
   width="800"
   height="800"
   viewBox="0 0 800 800"
   sodipodi:docname="cat-color-publicdomainvectors.org.svg"
   inkscape:version="1.2 (dc2aedaf03, 2022-05-15)"
   xmlns:inkscape="http://www.inkscape.org/namespaces/inkscape"
   xmlns:sodipodi="http://sodipodi.sourceforge.net/DTD/sodipodi-0.dtd"
   xmlns="http://www.w3.org/2000/svg"
   xmlns:svg="http://www.w3.org/2000/svg">
  <defs
     id="defs362">
    <clipPath
       clipPathUnits="userSpaceOnUse"
       id="clipPath374">
      <path
         d="M 0,600 H 600 V 0 H 0 Z"
         id="path372" />
    </clipPath>
  </defs>
  <sodipodi:namedview
     id="namedview360"
     pagecolor="#ffffff"
     bordercolor="#000000"
     borderopacity="0.25"
     inkscape:showpageshadow="2"
     inkscape:pageopacity="0.0"
     inkscape:pagecheckerboard="0"
     inkscape:deskcolor="#d1d1d1"
     showgrid="false"
     inkscape:zoom="1.04625"
     inkscape:cx="400"
     inkscape:cy="400.4779"
     inkscape:window-width="1920"
     inkscape:window-height="1017"
     inkscape:window-x="-8"
     inkscape:window-y="-8"
     inkscape:window-maximized="1"
     inkscape:current-layer="g366">
    <inkscape:page
       x="0"
       y="0"
       id="page364"
       width="800"
       height="800" />
  </sodipodi:namedview>
  <g
     id="g366"
     inkscape:groupmode="layer"
     inkscape:label="Page 1"
     transform="matrix(1.3333333,0,0,-1.3333333,0,800)">
    <g
       id="g368">
      <g
         id="g370"
         clip-path="url(#clipPath374)">
        <g
           id="g376"
           transform="translate(188.3218,585.5889)">
          <path
             d="m 0,0 c -2.806,0.369 -5.356,0.694 -7.483,0.966 -13.253,1.693 -27.228,-3.069 -32.588,-3.117 -1.764,-0.012 -6.216,0.983 -11.558,2.325 l 5.452,-32.548 z"
             style="fill:#e43f00;fill-opacity:1;fill-rule:nonzero;stroke:none"
             id="path378" />
        </g>
        <g
           id="g380"
           transform="translate(213.9023,518.314)">
          <path
             d="m 0,0 12.534,60.882 c -9.001,2.396 -25.986,4.8 -38.115,6.393 L -71.757,34.901 Z"
             style="fill:#e96e00;fill-opacity:1;fill-rule:nonzero;stroke:none"
             id="path382" />
        </g>
        <g
           id="g384"
           transform="translate(285.0537,551.3242)">
          <path
             d="m 0,0 c -4.068,1.616 -6.874,2.786 -8.165,3.641 -2.134,1.41 -6.061,3.526 -10.775,5.92 l 14.176,-25.486 z"
             style="fill:#e09400;fill-opacity:1;fill-rule:nonzero;stroke:none"
             id="path386" />
        </g>
        <g
           id="g388"
           transform="translate(334.8711,529.0278)">
          <path
             d="M 0,0 C -21.848,11.53 -39.722,18.287 -49.817,22.296 L -54.582,6.371 Z"
             style="fill:#b2ae00;fill-opacity:1;fill-rule:nonzero;stroke:none"
             id="path390" />
        </g>
        <g
           id="g392"
           transform="translate(280.2896,535.3989)">
          <path
             d="m 0,0 -14.176,25.487 c -12.271,6.23 -29.89,14.342 -35.17,16.805 -1.068,0.497 -2.612,1 -4.507,1.505 l -12.534,-60.882 z"
             style="fill:#e79b00;fill-opacity:1;fill-rule:nonzero;stroke:none"
             id="path394" />
        </g>
        <g
           id="g396"
           transform="translate(136.6924,585.7627)">
          <path
             d="m 0,0 c -10.907,2.737 -25.533,6.917 -28.62,6.917 -4.599,0 -1.838,-4.597 -1.379,-7.354 0.22,-1.314 2.527,-6.086 4.89,-10.728 L 5.453,-32.547 Z"
             style="fill:#df1200;fill-opacity:1;fill-rule:nonzero;stroke:none"
             id="path398" />
        </g>
        <g
           id="g400"
           transform="translate(105.772,562.3247)">
          <path
             d="m 0,0 c -0.46,-2.301 12.626,-12.139 12.626,-12.139 0,0 -2.95,-9.567 -4.882,-16.98 L 36.373,-9.109 5.811,12.273 C 8.415,7.154 11.083,2.192 11.083,2.192 11.083,2.192 0.462,2.301 0,0"
             style="fill:#e21700;fill-opacity:1;fill-rule:nonzero;stroke:none"
             id="path402" />
        </g>
        <g
           id="g404"
           transform="translate(307.1387,481.4585)">
          <path
             d="M 0,0 51.324,34.025 C 43.1,39.149 35.185,43.637 27.732,47.569 l -54.581,6.371 z"
             style="fill:#b8cb00;fill-opacity:1;fill-rule:nonzero;stroke:none"
             id="path406" />
        </g>
        <g
           id="g408"
           transform="translate(142.145,553.2153)">
          <path
             d="m 0,0 18.334,-69.749 c 3.424,1.813 6.681,3.697 9.234,5.256 8.28,5.065 19.777,6.441 23.095,6.466 0.261,10e-4 0.52,-0.063 0.776,-0.185 l 20.318,23.311 z"
             style="fill:#f86f00;fill-opacity:1;fill-rule:nonzero;stroke:none"
             id="path410" />
        </g>
        <g
           id="g412"
           transform="translate(166.4023,463.8203)">
          <path
             d="m 0,0 c -0.305,0.172 -0.601,0.335 -0.886,0.489 l 0.303,-1.157 z"
             style="fill:#f86f00;fill-opacity:1;fill-rule:nonzero;stroke:none"
             id="path414" />
        </g>
        <g
           id="g416"
           transform="translate(165.5161,464.3096)">
          <path
             d="m 0,0 c -1.324,0.715 -2.429,1.23 -3.164,1.412 -1.688,0.424 -3.281,0.752 -5.14,1.156 l 8.607,-3.725 z"
             style="fill:#f64500;fill-opacity:1;fill-rule:nonzero;stroke:none"
             id="path418" />
        </g>
        <g
           id="g420"
           transform="translate(113.5161,533.2056)">
          <path
             d="m 0,0 c -0.865,-3.32 -1.526,-6.208 -1.626,-7.61 -0.319,-4.535 5.841,-19.852 6.764,-23.992 0.918,-4.139 0,-13.795 0,-13.795 l 4.569,-4.663 c 0,0 3.48,-2.42 6.348,-4.309 l 5.655,-2.448 c 2.491,-0.045 5.728,0.498 5.728,0.498 3.332,-1.183 11.85,2.514 19.525,6.58 L 28.629,20.01 Z"
             style="fill:#f64500;fill-opacity:1;fill-rule:nonzero;stroke:none"
             id="path422" />
        </g>
        <g
           id="g424"
           transform="translate(280.2896,535.3989)">
          <path
             d="M 0,0 -66.387,-17.085 26.849,-53.94 Z"
             style="fill:#ebc300;fill-opacity:1;fill-rule:nonzero;stroke:none"
             id="path426" />
        </g>
        <g
           id="g428"
           transform="translate(157.2119,466.8774)">
          <path
             d="m 0,0 c -2.193,0.476 -4.757,1.056 -8.292,2.029 -6.532,1.795 -27.967,6.483 -32.571,5.88 -4.599,-0.591 -16.555,-7.22 -18.242,-13.984 -0.355,-1.428 -0.218,-2.853 0.252,-4.227 l 67.46,6.577 z"
             style="fill:#fb3e00;fill-opacity:1;fill-rule:nonzero;stroke:none"
             id="path430" />
        </g>
        <g
           id="g432"
           transform="translate(132.9111,476.7646)">
          <path
             d="M 0,0 C 0.511,-0.255 1.359,-0.358 2.315,-0.376 L -3.34,2.072 C -1.9,1.123 -0.614,0.308 0,0"
             style="fill:#fb3e00;fill-opacity:1;fill-rule:nonzero;stroke:none"
             id="path434" />
        </g>
        <g
           id="g436"
           transform="translate(307.1387,481.4585)">
          <path
             d="m 0,0 -93.236,36.856 -1.953,-79.568 z"
             style="fill:#fdc400;fill-opacity:1;fill-rule:nonzero;stroke:none"
             id="path438" />
        </g>
        <g
           id="g440"
           transform="translate(423.8701,459.2202)">
          <path
             d="M 0,0 C -6.982,9.435 -15.197,18.541 -24.829,26.917 L -47.415,3.2 Z"
             style="fill:#2bae26;fill-opacity:1;fill-rule:nonzero;stroke:none"
             id="path442" />
        </g>
        <g
           id="g444"
           transform="translate(399.041,486.1377)">
          <path
             d="m 0,0 c -1.725,1.501 -3.495,2.979 -5.314,4.429 -6.799,5.43 -13.54,10.412 -20.148,14.988 l 2.876,-43.134 z"
             style="fill:#35aa22;fill-opacity:1;fill-rule:nonzero;stroke:none"
             id="path446" />
        </g>
        <g
           id="g448"
           transform="translate(376.4551,462.4204)">
          <path
             d="m 0,0 -2.876,43.134 c -5.129,3.549 -10.177,6.854 -15.116,9.929 L -69.316,19.038 Z"
             style="fill:#77c014;fill-opacity:1;fill-rule:nonzero;stroke:none"
             id="path450" />
        </g>
        <g
           id="g452"
           transform="translate(211.9502,438.7461)">
          <path
             d="M 0,0 1.952,79.568 -18.366,56.257 c 2.998,-1.42 5.556,-10.694 5.428,-13.891 -0.141,-3.482 2.901,-16.304 3.819,-20.443 0.921,-4.141 -4.281,-12.39 -4.281,-12.39 -4.747,2.332 -11.358,4.567 -15.498,5.948 -3.135,1.042 -11.282,6.574 -16.65,9.593 l -0.583,-0.668 z"
             style="fill:#ff9800;fill-opacity:1;fill-rule:nonzero;stroke:none"
             id="path454" />
        </g>
        <g
           id="g456"
           transform="translate(322.5156,395.5454)">
          <path
             d="M 0,0 -110.565,43.201 -91.037,2.606 c 3.795,0.765 6.77,1.522 6.77,1.522 0,0 4.334,-17.504 6.271,-28.627 l 1.6,-3.326 z"
             style="fill:#ffe100;fill-opacity:1;fill-rule:nonzero;stroke:none"
             id="path458" />
        </g>
        <g
           id="g460"
           transform="translate(376.4551,462.4204)">
          <path
             d="m 0,0 -69.316,19.038 15.377,-85.913 z"
             style="fill:#b9e000;fill-opacity:1;fill-rule:nonzero;stroke:none"
             id="path462" />
        </g>
        <g
           id="g464"
           transform="translate(322.5156,395.5454)">
          <path
             d="M 0,0 -15.377,85.913 -110.565,43.201 Z"
             style="fill:#f8df00;fill-opacity:1;fill-rule:nonzero;stroke:none"
             id="path466" />
        </g>
        <g
           id="g468"
           transform="translate(447.8691,415.2295)">
          <path
             d="m 0,0 c -5.575,14.47 -13.356,29.609 -23.999,43.991 l -47.415,3.2 z"
             style="fill:#35b61e;fill-opacity:1;fill-rule:nonzero;stroke:none"
             id="path470" />
        </g>
        <g
           id="g472"
           transform="translate(354.7314,355.7607)">
          <path
             d="m 0,0 97.278,47.624 c -1.22,3.876 -2.595,7.834 -4.14,11.845 L 21.724,106.66 Z"
             style="fill:#6fd018;fill-opacity:1;fill-rule:nonzero;stroke:none"
             id="path474" />
        </g>
        <g
           id="g476"
           transform="translate(98.3589,456.5752)">
          <path
             d="m 0,0 c 1.758,-5.136 8.189,-9.542 11.093,-10.627 3.68,-1.382 15.18,1.376 19.229,0.962 4.048,-0.421 6.632,-3.75 6.632,-3.75 14.365,-0.488 21.058,-9.175 29.338,-16.535 0.695,-0.618 1.613,-1.338 2.705,-2.136 L 67.46,6.577 Z"
             style="fill:#ff6200;fill-opacity:1;fill-rule:nonzero;stroke:none"
             id="path478" />
        </g>
        <g
           id="g480"
           transform="translate(165.8193,463.1523)">
          <path
             d="m 0,0 1.536,-38.663 c 6.049,-4.422 17.59,-11.292 28.152,-17.098 l 16.443,31.355 z"
             style="fill:#ff9500;fill-opacity:1;fill-rule:nonzero;stroke:none"
             id="path482" />
        </g>
        <g
           id="g484"
           transform="translate(354.7314,355.7607)">
          <path
             d="M 0,0 21.724,106.66 -32.216,39.785 Z"
             style="fill:#b2e30b;fill-opacity:1;fill-rule:nonzero;stroke:none"
             id="path486" />
        </g>
        <g
           id="g488"
           transform="translate(195.5073,407.3916)">
          <path
             d="m 0,0 c 10.24,-5.626 19.554,-10.25 22.042,-10.664 3.078,-0.513 9.153,0.46 13.93,1.424 L 16.443,31.354 Z"
             style="fill:#ffb400;fill-opacity:1;fill-rule:nonzero;stroke:none"
             id="path490" />
        </g>
        <g
           id="g492"
           transform="translate(244.5195,371.0469)">
          <path
             d="m 0,0 c 0.058,-0.338 0.116,-0.67 0.169,-0.997 0.121,-0.722 0.2,-1.552 0.242,-2.471 L 1.6,-3.326 Z"
             style="fill:#ffb400;fill-opacity:1;fill-rule:nonzero;stroke:none"
             id="path494" />
        </g>
        <g
           id="g496"
           transform="translate(246.1191,367.7207)">
          <path
             d="m 0,0 36.298,-23.935 c 0.324,1.284 0.505,2.034 0.505,2.034 0.145,-0.881 0.356,-1.809 0.621,-2.775 l 18.469,-12.179 20.503,64.68 z"
             style="fill:#fff000;fill-opacity:1;fill-rule:nonzero;stroke:none"
             id="path498" />
        </g>
        <g
           id="g500"
           transform="translate(441.377,293.0352)">
          <path
             d="m 0,0 15.165,93.375 c -1.186,5.399 -2.68,11.092 -4.532,16.974 L -86.646,62.726 Z"
             style="fill:#88d515;fill-opacity:1;fill-rule:nonzero;stroke:none"
             id="path502" />
        </g>
        <g
           id="g504"
           transform="translate(469.957,297.2432)">
          <path
             d="m 0,0 c -0.288,0.553 -0.555,1.059 -0.794,1.51 -4.597,8.743 -10.58,26.215 -8.899,50.787 0.554,8.101 -0.294,21.251 -3.722,36.87 L -28.58,-4.208 Z"
             style="fill:#6eaf1b;fill-opacity:1;fill-rule:nonzero;stroke:none"
             id="path506" />
        </g>
        <g
           id="g508"
           transform="translate(441.377,293.0352)">
          <path
             d="M 0,0 -86.646,62.726 -38.563,-7.811 Z"
             style="fill:#d0eb00;fill-opacity:1;fill-rule:nonzero;stroke:none"
             id="path510" />
        </g>
        <g
           id="g512"
           transform="translate(244.9302,367.5791)">
          <path
             d="m 0,0 c 0.044,-0.952 0.048,-2.003 0.019,-3.133 l 1.17,3.275 z"
             style="fill:#ffbb00;fill-opacity:1;fill-rule:nonzero;stroke:none"
             id="path514" />
        </g>
        <g
           id="g516"
           transform="translate(302.0117,330.8652)">
          <path
             d="M 0,0 52.72,24.896 20.504,64.68 Z"
             style="fill:#fdf300;fill-opacity:1;fill-rule:nonzero;stroke:none"
             id="path518" />
        </g>
        <g
           id="g520"
           transform="translate(288.9365,330.2295)">
          <path
             d="M 0,0 13.075,0.636 -5.393,12.815 C -4.334,8.958 -2.372,4.498 0,0"
             style="fill:#ffe200;fill-opacity:1;fill-rule:nonzero;stroke:none"
             id="path522" />
        </g>
        <g
           id="g524"
           transform="translate(282.4175,343.7861)">
          <path
             d="m 0,0 -36.298,23.935 -1.171,-3.275 c -0.255,-9.745 -3.049,-25.512 -5.092,-36.601 l 38.726,1.881 C -2.141,-8.328 -0.72,-2.849 0,0"
             style="fill:#ffe200;fill-opacity:1;fill-rule:nonzero;stroke:none"
             id="path526" />
        </g>
        <g
           id="g528"
           transform="translate(302.0117,330.8652)">
          <path
             d="m 0,0 21.511,-65.595 h 5.828 L 52.72,24.896 Z"
             style="fill:#fff800;fill-opacity:1;fill-rule:nonzero;stroke:none"
             id="path530" />
        </g>
        <g
           id="g532"
           transform="translate(354.7314,355.7607)">
          <path
             d="m 0,0 -25.381,-90.49 h 22.013 l 51.451,19.954 z"
             style="fill:#fff500;fill-opacity:1;fill-rule:nonzero;stroke:none"
             id="path534" />
        </g>
        <g
           id="g536"
           transform="translate(486.6943,258.2871)">
          <path
             d="m 0,0 c -5.831,17.809 -13.164,32.139 -16.737,38.956 l -28.58,-4.208 z"
             style="fill:#bcba00;fill-opacity:1;fill-rule:nonzero;stroke:none"
             id="path538" />
        </g>
        <g
           id="g540"
           transform="translate(275.354,291.9844)">
          <path
             d="m 0,0 c -5.519,1.376 -7.819,-2.765 -12.419,-1.377 0,0 1.598,4.791 3.849,10.339 l -27.987,21.153 c -0.484,-2.635 -0.847,-4.684 -1.006,-5.874 -0.921,-6.896 -1.149,-15.633 -2.875,-17.934 -1.3,-1.732 -2.654,-1.543 -8.865,-2.415 l -5.495,-30.606 h 9.644 c 5.518,0 21.158,2.203 21.158,2.203 L 0.847,-26.714 H 38.636 L 3.458,-0.127 C 2.238,-0.29 1.083,-0.271 0,0"
             style="fill:#ffe100;fill-opacity:1;fill-rule:nonzero;stroke:none"
             id="path542" />
        </g>
        <g
           id="g544"
           transform="translate(288.9365,330.2295)">
          <path
             d="m 0,0 c 3.529,-6.692 7.97,-13.467 11.72,-18.465 6.897,-9.2 5.058,-9.663 -3.684,-12.877 -7.025,-2.594 -13.158,-6.365 -18.16,-7.03 l 35.178,-26.587 h 9.532 L 13.075,0.636 Z"
             style="fill:#fff200;fill-opacity:1;fill-rule:nonzero;stroke:none"
             id="path546" />
        </g>
        <g
           id="g548"
           transform="translate(272.1274,312.2817)">
          <path
             d="M 0,0 C 2.062,3.539 4.45,10.666 6.455,17.445 L -32.271,15.563 C -32.658,13.455 -33.02,11.515 -33.33,9.818 L -5.343,-11.335 C -3.773,-7.469 -1.886,-3.236 0,0"
             style="fill:#fff200;fill-opacity:1;fill-rule:nonzero;stroke:none"
             id="path550" />
        </g>
        <g
           id="g552"
           transform="translate(224.4082,295.6367)">
          <path
             d="m 0,0 c -9.142,-1.375 -19.19,-14.843 -18.815,-20.81 0.46,-7.353 8.438,-9.556 11.999,-9.556 h 2.964 L 1.643,0.239 C 1.127,0.167 0.584,0.089 0,0"
             style="fill:#ffb500;fill-opacity:1;fill-rule:nonzero;stroke:none"
             id="path554" />
        </g>
        <g
           id="g556"
           transform="translate(351.3633,265.2705)">
          <path
             d="m 0,0 h 48.563 l 2.888,19.954 z"
             style="fill:#fff300;fill-opacity:1;fill-rule:nonzero;stroke:none"
             id="path558" />
        </g>
        <g
           id="g560"
           transform="translate(449.168,243.1318)">
          <path
             d="M 0,0 C 1.262,-2.555 2.433,-5.23 3.492,-7.967 L 43.611,-8.403 C 42.089,-0.146 39.934,7.8 37.526,15.155 L -7.791,49.903 Z"
             style="fill:#d7cf00;fill-opacity:1;fill-rule:nonzero;stroke:none"
             id="path562" />
        </g>
        <g
           id="g564"
           transform="translate(402.8145,285.2246)">
          <path
             d="m 0,0 -2.889,-19.954 h 14.29 L 38.563,7.811 Z"
             style="fill:#e5ea00;fill-opacity:1;fill-rule:nonzero;stroke:none"
             id="path566" />
        </g>
        <g
           id="g568"
           transform="translate(414.2158,265.2705)">
          <path
             d="M 0,0 H 11.991 C 20.4,0 28.775,-9.632 34.952,-22.139 l -7.791,49.904 z"
             style="fill:#e8e200;fill-opacity:1;fill-rule:nonzero;stroke:none"
             id="path570" />
        </g>
        <g
           id="g572"
           transform="translate(455.1074,228.0977)">
          <path
             d="m 0,0 38.032,-57.381 c 3.025,20.139 3.408,40.098 0.419,59.518 L 38.439,2.118 C 38.207,3.632 37.948,5.136 37.672,6.631 L -2.447,7.067 C -1.548,4.744 -0.729,2.378 0,0"
             style="fill:#ecb600;fill-opacity:1;fill-rule:nonzero;stroke:none"
             id="path574" />
        </g>
        <g
           id="g576"
           transform="translate(458.5898,211.8115)">
          <path
             d="m 0,0 c 1.718,-15.523 -4.377,-46.655 -11.828,-73.453 l -0.259,-6.899 41.468,13.764 c 2.154,8.512 3.894,17.019 5.169,25.493 L -3.482,16.286 C -1.787,10.763 -0.576,5.187 0,0"
             style="fill:#f7b700;fill-opacity:1;fill-rule:nonzero;stroke:none"
             id="path578" />
        </g>
        <g
           id="g580"
           transform="translate(446.7617,138.3584)">
          <path
             d="m 0,0 c -0.596,-2.15 -1.202,-4.272 -1.816,-6.357 l 1.557,-0.542 z"
             style="fill:#ffc600;fill-opacity:1;fill-rule:nonzero;stroke:none"
             id="path582" />
        </g>
        <g
           id="g584"
           transform="translate(389.0098,51.8164)">
          <path
             d="m 0,0 c -0.86,-0.404 -1.72,-0.781 -2.583,-1.131 l 2.475,-0.991 z"
             style="fill:#ff9900;fill-opacity:1;fill-rule:nonzero;stroke:none"
             id="path586" />
        </g>
        <g
           id="g588"
           transform="translate(477.0254,110.5693)">
          <path
             d="m 0,0 c 1.119,2.966 2.179,5.9 3.177,8.784 2.977,8.61 5.585,17.241 7.768,25.87 L -30.522,20.89 Z"
             style="fill:#f18600;fill-opacity:1;fill-rule:nonzero;stroke:none"
             id="path590" />
        </g>
        <g
           id="g592"
           transform="translate(444.9453,132.001)">
          <path
             d="m 0,0 c -0.476,-1.622 -0.956,-3.222 -1.436,-4.793 l 2.994,4.251 z"
             style="fill:#ffa400;fill-opacity:1;fill-rule:nonzero;stroke:none"
             id="path594" />
        </g>
        <g
           id="g596"
           transform="translate(391.1367,52.8662)">
          <path
             d="M 0,0 C -0.707,-0.367 -1.417,-0.72 -2.127,-1.05 L -2.235,-3.172 Z"
             style="fill:#ffa400;fill-opacity:1;fill-rule:nonzero;stroke:none"
             id="path598" />
        </g>
        <g
           id="g600"
           transform="translate(461.0029,75.5586)">
          <path
             d="M 0,0 C 6.374,11.479 11.67,23.492 16.022,35.011 L -14.5,55.9 Z"
             style="fill:#f77600;fill-opacity:1;fill-rule:nonzero;stroke:none"
             id="path602" />
        </g>
        <g
           id="g604"
           transform="translate(443.5088,127.208)">
          <path
             d="M 0,0 C -3.522,-11.505 -7.136,-21.508 -10.221,-28.104 -18.5,-45.791 -34.959,-65.286 -52.372,-74.342 l -2.235,-3.172 56.928,2.677 c 5.625,7.222 10.667,15.069 15.173,23.188 l -14.5,55.9 z"
             style="fill:#ff8100;fill-opacity:1;fill-rule:nonzero;stroke:none"
             id="path606" />
        </g>
        <g
           id="g608"
           transform="translate(295.749,32.4053)">
          <path
             d="M 0,0 C 0.15,-0.148 0.328,-0.306 0.527,-0.469 L 4.222,28.252 C -10.612,24.602 -7.159,7.167 0,0"
             style="fill:#ff7200;fill-opacity:1;fill-rule:nonzero;stroke:none"
             id="path610" />
        </g>
        <g
           id="g612"
           transform="translate(386.4268,50.6855)">
          <path
             d="m 0,0 c -2.319,-0.936 -4.644,-1.671 -6.955,-2.177 -35.884,-7.817 -60.261,15.641 -78.207,12.425 -0.446,-0.079 -0.876,-0.173 -1.294,-0.276 l -3.694,-28.721 c 3.826,-3.112 16.622,-8.444 32.967,-12.522 l 59.658,30.28 z"
             style="fill:#ff7400;fill-opacity:1;fill-rule:nonzero;stroke:none"
             id="path614" />
        </g>
        <g
           id="g616"
           transform="translate(329.2441,19.4141)">
          <path
             d="M 0,0 C 20.869,-5.211 47.526,-8.375 68.678,-2.263 L 59.657,30.28 Z"
             style="fill:#ff6200;fill-opacity:1;fill-rule:nonzero;stroke:none"
             id="path618" />
        </g>
        <g
           id="g620"
           transform="translate(397.9219,17.1514)">
          <path
             d="M 0,0 C 0.6,0.175 1.19,0.353 1.777,0.54 20.294,6.442 35.512,19.301 47.908,35.22 L -9.02,32.543 Z"
             style="fill:#ff6700;fill-opacity:1;fill-rule:nonzero;stroke:none"
             id="path622" />
        </g>
      </g>
    </g>
  </g>
</svg>
